<mxfile host="app.diagrams.net" modified="2021-03-29T15:47:48.526Z" agent="5.0 (Windows NT 10.0; Win64; x64) AppleWebKit/537.36 (KHTML, like Gecko) Chrome/89.0.4389.90 Safari/537.36" etag="VIfHqpETXXhOAaje_7-f" version="14.5.3" type="github">
  <diagram name="Page-1" id="03018318-947c-dd8e-b7a3-06fadd420f32">
    <mxGraphModel dx="2660" dy="2657" grid="0" gridSize="10" guides="1" tooltips="1" connect="1" arrows="1" fold="1" page="1" pageScale="1" pageWidth="1169" pageHeight="827" background="#ffffff" math="0" shadow="0">
      <root>
        <mxCell id="0" />
        <mxCell id="1" parent="0" />
        <mxCell id="zWoutBjJizttgaIo_MZe-9" value="&lt;p style=&quot;margin: 0px; padding: 0px; color: rgb(23, 43, 77); font-size: 14px; font-style: normal; font-weight: 400; letter-spacing: normal; text-indent: 0px; text-transform: none; word-spacing: 0px; background-color: rgb(255, 255, 255);&quot;&gt;Kunden ska kunna se sin profil och de uppgifter som finns om kunden.&lt;/p&gt;&lt;p style=&quot;margin: 10px 0px 0px; padding: 0px; color: rgb(23, 43, 77); font-size: 14px; font-style: normal; font-weight: 400; letter-spacing: normal; text-indent: 0px; text-transform: none; word-spacing: 0px; background-color: rgb(255, 255, 255);&quot;&gt;Kunden ska kunna se sin beställningshistorik.&lt;/p&gt;&lt;p style=&quot;margin: 10px 0px 0px; padding: 0px; color: rgb(23, 43, 77); font-size: 14px; font-style: normal; font-weight: 400; letter-spacing: normal; text-indent: 0px; text-transform: none; word-spacing: 0px; background-color: rgb(255, 255, 255);&quot;&gt;Kunden ska kunna ändra sina kunduppgifter och radera sitt konto.&amp;nbsp;&lt;/p&gt;&lt;p style=&quot;margin: 10px 0px 0px; padding: 0px; color: rgb(23, 43, 77); font-size: 14px; font-style: normal; font-weight: 400; letter-spacing: normal; text-indent: 0px; text-transform: none; word-spacing: 0px; background-color: rgb(255, 255, 255);&quot;&gt;Vid radering av användarkonto så tas användarprofilen bort.&lt;/p&gt;&lt;p style=&quot;margin: 10px 0px 0px; padding: 0px; color: rgb(23, 43, 77); font-size: 14px; font-style: normal; font-weight: 400; letter-spacing: normal; text-indent: 0px; text-transform: none; word-spacing: 0px; background-color: rgb(255, 255, 255);&quot;&gt;Om kunden har gjort en beställning och raderar sitt konto så ska uppgifterna om beställning fortfarande finnas kvar i databasen, men kundens uppgift raderas.&lt;/p&gt;" style="text;whiteSpace=wrap;html=1;" vertex="1" parent="1">
          <mxGeometry x="46" y="-196" width="550" height="140" as="geometry" />
        </mxCell>
        <mxCell id="zWoutBjJizttgaIo_MZe-147" value="" style="html=1;shadow=0;dashed=0;shape=mxgraph.bootstrap.rrect;rSize=5;strokeColor=#DFDFDF;html=1;whiteSpace=wrap;fillColor=#FFFFFF;fontColor=#000000;align=right;container=0;" vertex="1" parent="1">
          <mxGeometry x="1515" y="151" width="547" height="621" as="geometry" />
        </mxCell>
        <mxCell id="zWoutBjJizttgaIo_MZe-168" value="Nya beställningar" style="text;html=1;strokeColor=none;fillColor=none;align=center;verticalAlign=middle;whiteSpace=wrap;rounded=0;fontSize=28;" vertex="1" parent="1">
          <mxGeometry x="1511.5" y="91" width="547.5" height="50" as="geometry" />
        </mxCell>
        <mxCell id="zWoutBjJizttgaIo_MZe-169" value="" style="html=1;shadow=0;dashed=0;fillColor=#0085FC;strokeColor=none;fontSize=16;fontColor=#ffffff;align=left;spacing=15;" vertex="1" parent="1">
          <mxGeometry x="1500" y="14" width="800" height="60" as="geometry" />
        </mxCell>
        <mxCell id="zWoutBjJizttgaIo_MZe-170" value="Search" style="html=1;shadow=0;dashed=0;shape=mxgraph.bootstrap.rrect;rSize=5;fontSize=14;fontColor=#6C767D;strokeColor=#CED4DA;fillColor=#ffffff;align=left;spacing=10;" vertex="1" parent="zWoutBjJizttgaIo_MZe-169">
          <mxGeometry x="1" width="180" height="40" relative="1" as="geometry">
            <mxPoint x="-405" y="10" as="offset" />
          </mxGeometry>
        </mxCell>
        <mxCell id="zWoutBjJizttgaIo_MZe-171" value="Varukorg" style="html=1;shadow=0;dashed=0;shape=mxgraph.bootstrap.rrect;rSize=5;strokeColor=none;strokeWidth=1;fillColor=#6C767D;fontColor=#FFFFFF;whiteSpace=wrap;align=center;verticalAlign=middle;spacingLeft=0;fontStyle=0;fontSize=16;spacing=5;" vertex="1" parent="zWoutBjJizttgaIo_MZe-169">
          <mxGeometry x="587" y="10" width="100" height="40" as="geometry" />
        </mxCell>
        <mxCell id="zWoutBjJizttgaIo_MZe-172" value="Logga ut" style="html=1;shadow=0;dashed=0;shape=mxgraph.bootstrap.rrect;rSize=5;strokeColor=none;strokeWidth=1;fillColor=#6C767D;fontColor=#FFFFFF;whiteSpace=wrap;align=center;verticalAlign=middle;spacingLeft=0;fontStyle=0;fontSize=16;spacing=5;" vertex="1" parent="zWoutBjJizttgaIo_MZe-169">
          <mxGeometry x="694" y="10" width="100" height="40" as="geometry" />
        </mxCell>
        <mxCell id="zWoutBjJizttgaIo_MZe-189" value="" style="verticalLabelPosition=bottom;shadow=0;dashed=0;align=center;html=1;verticalAlign=top;strokeWidth=1;shape=mxgraph.mockup.graphics.simpleIcon;strokeColor=#999999;fontSize=28;" vertex="1" parent="1">
          <mxGeometry x="1291" y="14" width="209" height="59" as="geometry" />
        </mxCell>
        <mxCell id="zWoutBjJizttgaIo_MZe-190" value="" style="group" vertex="1" connectable="0" parent="1">
          <mxGeometry x="146" y="14" width="1019.5" height="1044" as="geometry" />
        </mxCell>
        <mxCell id="zWoutBjJizttgaIo_MZe-34" value="" style="html=1;shadow=0;dashed=0;shape=mxgraph.bootstrap.rrect;rSize=5;strokeColor=#DEE2E6;html=1;whiteSpace=wrap;fillColor=#ffffff;fontColor=#0085FC;align=center;" vertex="1" parent="zWoutBjJizttgaIo_MZe-190">
          <mxGeometry x="552" y="1014" width="150" height="30" as="geometry" />
        </mxCell>
        <mxCell id="zWoutBjJizttgaIo_MZe-35" value="&lt;&lt;" style="strokeColor=inherit;fillColor=inherit;gradientColor=inherit;fontColor=inherit;html=1;shadow=0;dashed=0;shape=mxgraph.bootstrap.leftButton;rSize=5;perimeter=none;whiteSpace=wrap;resizeHeight=1;fontSize=14;" vertex="1" parent="zWoutBjJizttgaIo_MZe-34">
          <mxGeometry width="30" height="30" relative="1" as="geometry" />
        </mxCell>
        <mxCell id="zWoutBjJizttgaIo_MZe-36" value="1" style="strokeColor=inherit;fillColor=inherit;gradientColor=inherit;fontColor=inherit;html=1;shadow=0;dashed=0;perimeter=none;whiteSpace=wrap;resizeHeight=1;fontSize=14;" vertex="1" parent="zWoutBjJizttgaIo_MZe-34">
          <mxGeometry width="30" height="30" relative="1" as="geometry">
            <mxPoint x="30" as="offset" />
          </mxGeometry>
        </mxCell>
        <mxCell id="zWoutBjJizttgaIo_MZe-37" value="2" style="strokeColor=inherit;fillColor=inherit;gradientColor=inherit;fontColor=inherit;html=1;shadow=0;dashed=0;perimeter=none;whiteSpace=wrap;resizeHeight=1;fontSize=14;" vertex="1" parent="zWoutBjJizttgaIo_MZe-34">
          <mxGeometry width="30" height="30" relative="1" as="geometry">
            <mxPoint x="60" as="offset" />
          </mxGeometry>
        </mxCell>
        <mxCell id="zWoutBjJizttgaIo_MZe-38" value="3" style="strokeColor=inherit;fillColor=inherit;gradientColor=inherit;fontColor=inherit;html=1;shadow=0;dashed=0;perimeter=none;whiteSpace=wrap;resizeHeight=1;fontSize=14;" vertex="1" parent="zWoutBjJizttgaIo_MZe-34">
          <mxGeometry width="30" height="30" relative="1" as="geometry">
            <mxPoint x="90" as="offset" />
          </mxGeometry>
        </mxCell>
        <mxCell id="zWoutBjJizttgaIo_MZe-39" value="&gt;&gt;" style="strokeColor=inherit;fillColor=inherit;gradientColor=inherit;fontColor=inherit;html=1;shadow=0;dashed=0;shape=mxgraph.bootstrap.rightButton;rSize=5;perimeter=none;whiteSpace=wrap;resizeHeight=1;fontSize=14;" vertex="1" parent="zWoutBjJizttgaIo_MZe-34">
          <mxGeometry x="1" width="30" height="30" relative="1" as="geometry">
            <mxPoint x="-30" as="offset" />
          </mxGeometry>
        </mxCell>
        <mxCell id="zWoutBjJizttgaIo_MZe-66" value="" style="html=1;shadow=0;dashed=0;shape=mxgraph.bootstrap.rrect;rSize=5;strokeColor=#DFDFDF;html=1;whiteSpace=wrap;fillColor=#FFFFFF;fontColor=#000000;align=center;" vertex="1" parent="zWoutBjJizttgaIo_MZe-190">
          <mxGeometry x="224" y="137" width="789" height="230" as="geometry" />
        </mxCell>
        <mxCell id="zWoutBjJizttgaIo_MZe-67" value="Ny beställning (id: #34)" style="html=1;shadow=0;dashed=0;shape=mxgraph.bootstrap.topButton;strokeColor=inherit;fillColor=#F7F7F7;rSize=5;perimeter=none;whiteSpace=wrap;resizeWidth=1;align=left;spacing=20;fontSize=14;fontStyle=1" vertex="1" parent="zWoutBjJizttgaIo_MZe-66">
          <mxGeometry width="789" height="40" relative="1" as="geometry" />
        </mxCell>
        <mxCell id="zWoutBjJizttgaIo_MZe-68" value="&lt;span style=&quot;font-size: 20px&quot;&gt;&lt;b&gt;Beställning den 29 mars 2021&lt;br&gt;&lt;/b&gt;&lt;/span&gt;&lt;br style=&quot;font-size: 14px&quot;&gt;Summa: 439,75 kr inkl. moms&lt;br&gt;&lt;br&gt;Redo att hämtas i butik 2021-03-30 kl. 10:00" style="perimeter=none;html=1;whiteSpace=wrap;fillColor=none;strokeColor=none;resizeWidth=1;verticalAlign=top;align=left;spacing=20;spacingTop=-10;fontSize=14;" vertex="1" parent="zWoutBjJizttgaIo_MZe-66">
          <mxGeometry width="789" height="120" relative="1" as="geometry">
            <mxPoint y="40" as="offset" />
          </mxGeometry>
        </mxCell>
        <mxCell id="zWoutBjJizttgaIo_MZe-69" value="Visa beställning" style="html=1;shadow=0;dashed=0;shape=mxgraph.bootstrap.rrect;rSize=5;perimeter=none;whiteSpace=wrap;fillColor=#0085FC;strokeColor=none;fontColor=#ffffff;resizeWidth=1;fontSize=14;" vertex="1" parent="zWoutBjJizttgaIo_MZe-66">
          <mxGeometry y="1" width="319.86486486486484" height="40" relative="1" as="geometry">
            <mxPoint x="250" y="-60" as="offset" />
          </mxGeometry>
        </mxCell>
        <mxCell id="zWoutBjJizttgaIo_MZe-75" value="" style="html=1;shadow=0;dashed=0;shape=mxgraph.bootstrap.rrect;rSize=5;strokeColor=#DFDFDF;html=1;whiteSpace=wrap;fillColor=#FFFFFF;fontColor=#000000;align=center;" vertex="1" parent="zWoutBjJizttgaIo_MZe-190">
          <mxGeometry x="230" y="494" width="370" height="230" as="geometry" />
        </mxCell>
        <mxCell id="zWoutBjJizttgaIo_MZe-76" value="Hanterad beställning (id: #33)" style="html=1;shadow=0;dashed=0;shape=mxgraph.bootstrap.topButton;strokeColor=inherit;fillColor=#F7F7F7;rSize=5;perimeter=none;whiteSpace=wrap;resizeWidth=1;align=left;spacing=20;fontSize=14;fontStyle=1" vertex="1" parent="zWoutBjJizttgaIo_MZe-75">
          <mxGeometry width="370" height="40" relative="1" as="geometry" />
        </mxCell>
        <mxCell id="zWoutBjJizttgaIo_MZe-77" value="&lt;span style=&quot;font-size: 20px&quot;&gt;&lt;b&gt;Beställning den 12 mars 2021&lt;br&gt;&lt;/b&gt;&lt;/span&gt;&lt;br style=&quot;font-size: 14px&quot;&gt;Summa: 139,00 kr inkl. moms&lt;br&gt;&lt;br&gt;Hämtades i butik 2021-03-13" style="perimeter=none;html=1;whiteSpace=wrap;fillColor=none;strokeColor=none;resizeWidth=1;verticalAlign=top;align=left;spacing=20;spacingTop=-10;fontSize=14;" vertex="1" parent="zWoutBjJizttgaIo_MZe-75">
          <mxGeometry width="370" height="120" relative="1" as="geometry">
            <mxPoint y="40" as="offset" />
          </mxGeometry>
        </mxCell>
        <mxCell id="zWoutBjJizttgaIo_MZe-78" value="Visa beställning" style="html=1;shadow=0;dashed=0;shape=mxgraph.bootstrap.rrect;rSize=5;perimeter=none;whiteSpace=wrap;fillColor=#0085FC;strokeColor=none;fontColor=#ffffff;resizeWidth=1;fontSize=14;" vertex="1" parent="zWoutBjJizttgaIo_MZe-75">
          <mxGeometry y="1" width="150" height="40" relative="1" as="geometry">
            <mxPoint x="110" y="-60" as="offset" />
          </mxGeometry>
        </mxCell>
        <mxCell id="zWoutBjJizttgaIo_MZe-83" value="" style="html=1;shadow=0;dashed=0;shape=mxgraph.bootstrap.rrect;rSize=5;strokeColor=#DFDFDF;html=1;whiteSpace=wrap;fillColor=#FFFFFF;fontColor=#000000;align=center;" vertex="1" parent="zWoutBjJizttgaIo_MZe-190">
          <mxGeometry x="640" y="494" width="370" height="230" as="geometry" />
        </mxCell>
        <mxCell id="zWoutBjJizttgaIo_MZe-84" value="Hanterad beställning (id: #14)" style="html=1;shadow=0;dashed=0;shape=mxgraph.bootstrap.topButton;strokeColor=inherit;fillColor=#F7F7F7;rSize=5;perimeter=none;whiteSpace=wrap;resizeWidth=1;align=left;spacing=20;fontSize=14;fontStyle=1" vertex="1" parent="zWoutBjJizttgaIo_MZe-83">
          <mxGeometry width="370" height="40" relative="1" as="geometry" />
        </mxCell>
        <mxCell id="zWoutBjJizttgaIo_MZe-85" value="&lt;span style=&quot;font-size: 20px&quot;&gt;&lt;b&gt;Beställning den 11 mars 2021&lt;br&gt;&lt;/b&gt;&lt;/span&gt;&lt;br style=&quot;font-size: 14px&quot;&gt;Summa: 117,95 kr inkl. moms&lt;br&gt;&lt;br&gt;Hämtades i butik 2021-03-12" style="perimeter=none;html=1;whiteSpace=wrap;fillColor=none;strokeColor=none;resizeWidth=1;verticalAlign=top;align=left;spacing=20;spacingTop=-10;fontSize=14;" vertex="1" parent="zWoutBjJizttgaIo_MZe-83">
          <mxGeometry width="370" height="120" relative="1" as="geometry">
            <mxPoint y="40" as="offset" />
          </mxGeometry>
        </mxCell>
        <mxCell id="zWoutBjJizttgaIo_MZe-86" value="Visa beställning" style="html=1;shadow=0;dashed=0;shape=mxgraph.bootstrap.rrect;rSize=5;perimeter=none;whiteSpace=wrap;fillColor=#0085FC;strokeColor=none;fontColor=#ffffff;resizeWidth=1;fontSize=14;" vertex="1" parent="zWoutBjJizttgaIo_MZe-83">
          <mxGeometry y="1" width="150" height="40" relative="1" as="geometry">
            <mxPoint x="110" y="-60" as="offset" />
          </mxGeometry>
        </mxCell>
        <mxCell id="zWoutBjJizttgaIo_MZe-87" value="" style="html=1;shadow=0;dashed=0;shape=mxgraph.bootstrap.rrect;rSize=5;strokeColor=#DFDFDF;html=1;whiteSpace=wrap;fillColor=#FFFFFF;fontColor=#000000;align=center;" vertex="1" parent="zWoutBjJizttgaIo_MZe-190">
          <mxGeometry x="230" y="754" width="370" height="230" as="geometry" />
        </mxCell>
        <mxCell id="zWoutBjJizttgaIo_MZe-88" value="Hanterad beställning (id: #3)" style="html=1;shadow=0;dashed=0;shape=mxgraph.bootstrap.topButton;strokeColor=inherit;fillColor=#F7F7F7;rSize=5;perimeter=none;whiteSpace=wrap;resizeWidth=1;align=left;spacing=20;fontSize=14;fontStyle=1" vertex="1" parent="zWoutBjJizttgaIo_MZe-87">
          <mxGeometry width="370" height="40" relative="1" as="geometry" />
        </mxCell>
        <mxCell id="zWoutBjJizttgaIo_MZe-89" value="&lt;span style=&quot;font-size: 20px&quot;&gt;&lt;b&gt;Beställning den 12 mars 2021&lt;br&gt;&lt;/b&gt;&lt;/span&gt;&lt;br style=&quot;font-size: 14px&quot;&gt;Summa: 139,00 kr inkl. moms&lt;br&gt;&lt;br&gt;Hämtades i butik 2021-03-13" style="perimeter=none;html=1;whiteSpace=wrap;fillColor=none;strokeColor=none;resizeWidth=1;verticalAlign=top;align=left;spacing=20;spacingTop=-10;fontSize=14;" vertex="1" parent="zWoutBjJizttgaIo_MZe-87">
          <mxGeometry width="370" height="120" relative="1" as="geometry">
            <mxPoint y="40" as="offset" />
          </mxGeometry>
        </mxCell>
        <mxCell id="zWoutBjJizttgaIo_MZe-90" value="Visa beställning" style="html=1;shadow=0;dashed=0;shape=mxgraph.bootstrap.rrect;rSize=5;perimeter=none;whiteSpace=wrap;fillColor=#0085FC;strokeColor=none;fontColor=#ffffff;resizeWidth=1;fontSize=14;" vertex="1" parent="zWoutBjJizttgaIo_MZe-87">
          <mxGeometry y="1" width="150" height="40" relative="1" as="geometry">
            <mxPoint x="110" y="-60" as="offset" />
          </mxGeometry>
        </mxCell>
        <mxCell id="zWoutBjJizttgaIo_MZe-91" value="" style="html=1;shadow=0;dashed=0;shape=mxgraph.bootstrap.rrect;rSize=5;strokeColor=#DFDFDF;html=1;whiteSpace=wrap;fillColor=#FFFFFF;fontColor=#000000;align=center;" vertex="1" parent="zWoutBjJizttgaIo_MZe-190">
          <mxGeometry x="640" y="754" width="370" height="230" as="geometry" />
        </mxCell>
        <mxCell id="zWoutBjJizttgaIo_MZe-92" value="Hanterad beställning (id: #2)" style="html=1;shadow=0;dashed=0;shape=mxgraph.bootstrap.topButton;strokeColor=inherit;fillColor=#F7F7F7;rSize=5;perimeter=none;whiteSpace=wrap;resizeWidth=1;align=left;spacing=20;fontSize=14;fontStyle=1" vertex="1" parent="zWoutBjJizttgaIo_MZe-91">
          <mxGeometry width="370" height="40" relative="1" as="geometry" />
        </mxCell>
        <mxCell id="zWoutBjJizttgaIo_MZe-93" value="&lt;span style=&quot;font-size: 20px&quot;&gt;&lt;b&gt;Beställning den 11 mars 2021&lt;br&gt;&lt;/b&gt;&lt;/span&gt;&lt;br style=&quot;font-size: 14px&quot;&gt;Summa: 117,95 kr inkl. moms&lt;br&gt;&lt;br&gt;Hämtades i butik 2021-03-12" style="perimeter=none;html=1;whiteSpace=wrap;fillColor=none;strokeColor=none;resizeWidth=1;verticalAlign=top;align=left;spacing=20;spacingTop=-10;fontSize=14;" vertex="1" parent="zWoutBjJizttgaIo_MZe-91">
          <mxGeometry width="370" height="120" relative="1" as="geometry">
            <mxPoint y="40" as="offset" />
          </mxGeometry>
        </mxCell>
        <mxCell id="zWoutBjJizttgaIo_MZe-94" value="Visa beställning" style="html=1;shadow=0;dashed=0;shape=mxgraph.bootstrap.rrect;rSize=5;perimeter=none;whiteSpace=wrap;fillColor=#0085FC;strokeColor=none;fontColor=#ffffff;resizeWidth=1;fontSize=14;" vertex="1" parent="zWoutBjJizttgaIo_MZe-91">
          <mxGeometry y="1" width="150" height="40" relative="1" as="geometry">
            <mxPoint x="110" y="-60" as="offset" />
          </mxGeometry>
        </mxCell>
        <mxCell id="zWoutBjJizttgaIo_MZe-95" value="Tidigare beställningar" style="text;html=1;strokeColor=none;fillColor=none;align=center;verticalAlign=middle;whiteSpace=wrap;rounded=0;fontSize=28;" vertex="1" parent="zWoutBjJizttgaIo_MZe-190">
          <mxGeometry x="220.5" y="430" width="796" height="50" as="geometry" />
        </mxCell>
        <mxCell id="zWoutBjJizttgaIo_MZe-96" value="Nya beställningar" style="text;html=1;strokeColor=none;fillColor=none;align=center;verticalAlign=middle;whiteSpace=wrap;rounded=0;fontSize=28;" vertex="1" parent="zWoutBjJizttgaIo_MZe-190">
          <mxGeometry x="220.5" y="77" width="799" height="50" as="geometry" />
        </mxCell>
        <mxCell id="zWoutBjJizttgaIo_MZe-99" value="" style="html=1;shadow=0;dashed=0;fillColor=#0085FC;strokeColor=none;fontSize=16;fontColor=#ffffff;align=left;spacing=15;" vertex="1" parent="zWoutBjJizttgaIo_MZe-190">
          <mxGeometry x="209" width="800" height="60" as="geometry" />
        </mxCell>
        <mxCell id="zWoutBjJizttgaIo_MZe-105" value="Search" style="html=1;shadow=0;dashed=0;shape=mxgraph.bootstrap.rrect;rSize=5;fontSize=14;fontColor=#6C767D;strokeColor=#CED4DA;fillColor=#ffffff;align=left;spacing=10;" vertex="1" parent="zWoutBjJizttgaIo_MZe-99">
          <mxGeometry x="1" width="180" height="40" relative="1" as="geometry">
            <mxPoint x="-405" y="10" as="offset" />
          </mxGeometry>
        </mxCell>
        <mxCell id="zWoutBjJizttgaIo_MZe-106" value="Varukorg" style="html=1;shadow=0;dashed=0;shape=mxgraph.bootstrap.rrect;rSize=5;strokeColor=none;strokeWidth=1;fillColor=#6C767D;fontColor=#FFFFFF;whiteSpace=wrap;align=center;verticalAlign=middle;spacingLeft=0;fontStyle=0;fontSize=16;spacing=5;" vertex="1" parent="zWoutBjJizttgaIo_MZe-99">
          <mxGeometry x="587" y="10" width="100" height="40" as="geometry" />
        </mxCell>
        <mxCell id="zWoutBjJizttgaIo_MZe-107" value="Logga ut" style="html=1;shadow=0;dashed=0;shape=mxgraph.bootstrap.rrect;rSize=5;strokeColor=none;strokeWidth=1;fillColor=#6C767D;fontColor=#FFFFFF;whiteSpace=wrap;align=center;verticalAlign=middle;spacingLeft=0;fontStyle=0;fontSize=16;spacing=5;" vertex="1" parent="zWoutBjJizttgaIo_MZe-99">
          <mxGeometry x="694" y="10" width="100" height="40" as="geometry" />
        </mxCell>
        <mxCell id="zWoutBjJizttgaIo_MZe-113" value="" style="html=1;shadow=0;dashed=0;shape=mxgraph.bootstrap.rrect;rSize=5;strokeColor=#DFDFDF;html=1;whiteSpace=wrap;fillColor=#FFFFFF;fontColor=#000000;align=right;" vertex="1" parent="zWoutBjJizttgaIo_MZe-190">
          <mxGeometry x="3" y="238" width="200" height="150" as="geometry" />
        </mxCell>
        <mxCell id="zWoutBjJizttgaIo_MZe-114" value="Mina sidor" style="html=1;shadow=0;dashed=0;shape=mxgraph.bootstrap.topButton;rSize=5;strokeColor=none;fillColor=#0085FC;fontColor=#ffffff;perimeter=none;whiteSpace=wrap;resizeWidth=1;align=left;spacing=10;fontStyle=1" vertex="1" parent="zWoutBjJizttgaIo_MZe-113">
          <mxGeometry width="200" height="30" relative="1" as="geometry" />
        </mxCell>
        <mxCell id="zWoutBjJizttgaIo_MZe-115" value="Mina beställningar" style="strokeColor=inherit;fillColor=inherit;gradientColor=inherit;fontColor=inherit;html=1;shadow=0;dashed=0;perimeter=none;whiteSpace=wrap;resizeWidth=1;align=left;spacing=10;" vertex="1" parent="zWoutBjJizttgaIo_MZe-113">
          <mxGeometry width="200" height="30" relative="1" as="geometry">
            <mxPoint y="30" as="offset" />
          </mxGeometry>
        </mxCell>
        <mxCell id="zWoutBjJizttgaIo_MZe-116" value="Mina uppgifter" style="strokeColor=inherit;fillColor=inherit;gradientColor=inherit;fontColor=inherit;html=1;shadow=0;dashed=0;perimeter=none;whiteSpace=wrap;resizeWidth=1;align=left;spacing=10;" vertex="1" parent="zWoutBjJizttgaIo_MZe-113">
          <mxGeometry width="200" height="30" relative="1" as="geometry">
            <mxPoint y="60" as="offset" />
          </mxGeometry>
        </mxCell>
        <mxCell id="zWoutBjJizttgaIo_MZe-117" value="Porta ac consectetur ac" style="strokeColor=inherit;fillColor=inherit;gradientColor=inherit;fontColor=inherit;html=1;shadow=0;dashed=0;perimeter=none;whiteSpace=wrap;resizeWidth=1;align=left;spacing=10;" vertex="1" parent="zWoutBjJizttgaIo_MZe-113">
          <mxGeometry width="200" height="30" relative="1" as="geometry">
            <mxPoint y="90" as="offset" />
          </mxGeometry>
        </mxCell>
        <mxCell id="zWoutBjJizttgaIo_MZe-118" value="Vestibulum at eros" style="strokeColor=inherit;fillColor=inherit;gradientColor=inherit;fontColor=inherit;html=1;shadow=0;dashed=0;shape=mxgraph.bootstrap.bottomButton;rSize=5;perimeter=none;whiteSpace=wrap;resizeWidth=1;resizeHeight=0;align=left;spacing=10;" vertex="1" parent="zWoutBjJizttgaIo_MZe-113">
          <mxGeometry y="1" width="200" height="30" relative="1" as="geometry">
            <mxPoint y="-30" as="offset" />
          </mxGeometry>
        </mxCell>
        <mxCell id="zWoutBjJizttgaIo_MZe-119" value="" style="html=1;shadow=0;dashed=0;shape=mxgraph.bootstrap.rrect;rSize=5;strokeColor=#DFDFDF;html=1;whiteSpace=wrap;fillColor=#FFFFFF;fontColor=#000000;align=right;" vertex="1" parent="zWoutBjJizttgaIo_MZe-190">
          <mxGeometry x="3" y="77" width="200" height="150" as="geometry" />
        </mxCell>
        <mxCell id="zWoutBjJizttgaIo_MZe-120" value="Produkter" style="strokeColor=inherit;fillColor=inherit;gradientColor=inherit;fontColor=inherit;html=1;shadow=0;dashed=0;shape=mxgraph.bootstrap.topButton;rSize=5;perimeter=none;whiteSpace=wrap;resizeWidth=1;align=left;spacing=10;fontStyle=1" vertex="1" parent="zWoutBjJizttgaIo_MZe-119">
          <mxGeometry width="200" height="30" relative="1" as="geometry" />
        </mxCell>
        <mxCell id="zWoutBjJizttgaIo_MZe-121" value="Kategori 1" style="strokeColor=inherit;fillColor=inherit;gradientColor=inherit;fontColor=inherit;html=1;shadow=0;dashed=0;perimeter=none;whiteSpace=wrap;resizeWidth=1;align=left;spacing=10;" vertex="1" parent="zWoutBjJizttgaIo_MZe-119">
          <mxGeometry width="200" height="30" relative="1" as="geometry">
            <mxPoint y="30" as="offset" />
          </mxGeometry>
        </mxCell>
        <mxCell id="zWoutBjJizttgaIo_MZe-122" value="Kategori 2" style="strokeColor=inherit;fillColor=inherit;gradientColor=inherit;fontColor=inherit;html=1;shadow=0;dashed=0;perimeter=none;whiteSpace=wrap;resizeWidth=1;align=left;spacing=10;" vertex="1" parent="zWoutBjJizttgaIo_MZe-119">
          <mxGeometry width="200" height="30" relative="1" as="geometry">
            <mxPoint y="60" as="offset" />
          </mxGeometry>
        </mxCell>
        <mxCell id="zWoutBjJizttgaIo_MZe-123" value="Kategori 3" style="strokeColor=inherit;fillColor=inherit;gradientColor=inherit;fontColor=inherit;html=1;shadow=0;dashed=0;perimeter=none;whiteSpace=wrap;resizeWidth=1;align=left;spacing=10;" vertex="1" parent="zWoutBjJizttgaIo_MZe-119">
          <mxGeometry width="200" height="30" relative="1" as="geometry">
            <mxPoint y="90" as="offset" />
          </mxGeometry>
        </mxCell>
        <mxCell id="zWoutBjJizttgaIo_MZe-124" value="Kategori 4" style="strokeColor=inherit;fillColor=inherit;gradientColor=inherit;fontColor=inherit;html=1;shadow=0;dashed=0;shape=mxgraph.bootstrap.bottomButton;rSize=5;perimeter=none;whiteSpace=wrap;resizeWidth=1;resizeHeight=0;align=left;spacing=10;" vertex="1" parent="zWoutBjJizttgaIo_MZe-119">
          <mxGeometry y="1" width="200" height="30" relative="1" as="geometry">
            <mxPoint y="-30" as="offset" />
          </mxGeometry>
        </mxCell>
        <mxCell id="zWoutBjJizttgaIo_MZe-125" value="" style="html=1;shadow=0;dashed=0;shape=mxgraph.bootstrap.rrect;rSize=5;strokeColor=#DFDFDF;html=1;whiteSpace=wrap;fillColor=#FFFFFF;fontColor=#000000;align=right;" vertex="1" parent="zWoutBjJizttgaIo_MZe-190">
          <mxGeometry x="3" y="399" width="200" height="89" as="geometry" />
        </mxCell>
        <mxCell id="zWoutBjJizttgaIo_MZe-126" value="Information" style="strokeColor=inherit;fillColor=inherit;gradientColor=inherit;fontColor=inherit;html=1;shadow=0;dashed=0;shape=mxgraph.bootstrap.topButton;rSize=5;perimeter=none;whiteSpace=wrap;resizeWidth=1;align=left;spacing=10;fontStyle=1" vertex="1" parent="zWoutBjJizttgaIo_MZe-125">
          <mxGeometry width="200" height="30" relative="1" as="geometry" />
        </mxCell>
        <mxCell id="zWoutBjJizttgaIo_MZe-127" value="Om HakimLivs" style="strokeColor=inherit;fillColor=inherit;gradientColor=inherit;fontColor=inherit;html=1;shadow=0;dashed=0;perimeter=none;whiteSpace=wrap;resizeWidth=1;align=left;spacing=10;" vertex="1" parent="zWoutBjJizttgaIo_MZe-125">
          <mxGeometry width="200" height="30" relative="1" as="geometry">
            <mxPoint y="30" as="offset" />
          </mxGeometry>
        </mxCell>
        <mxCell id="zWoutBjJizttgaIo_MZe-130" value="Kontakt" style="strokeColor=inherit;fillColor=inherit;gradientColor=inherit;fontColor=inherit;html=1;shadow=0;dashed=0;shape=mxgraph.bootstrap.bottomButton;rSize=5;perimeter=none;whiteSpace=wrap;resizeWidth=1;resizeHeight=0;align=left;spacing=10;" vertex="1" parent="zWoutBjJizttgaIo_MZe-125">
          <mxGeometry y="1" width="200" height="30" relative="1" as="geometry">
            <mxPoint y="-30" as="offset" />
          </mxGeometry>
        </mxCell>
        <mxCell id="zWoutBjJizttgaIo_MZe-140" value="" style="verticalLabelPosition=bottom;shadow=0;dashed=0;align=center;html=1;verticalAlign=top;strokeWidth=1;shape=mxgraph.mockup.graphics.simpleIcon;strokeColor=#999999;fontSize=28;" vertex="1" parent="zWoutBjJizttgaIo_MZe-190">
          <mxGeometry width="209" height="59" as="geometry" />
        </mxCell>
        <mxCell id="zWoutBjJizttgaIo_MZe-191" value="" style="group" vertex="1" connectable="0" parent="1">
          <mxGeometry x="1294" y="91" width="200" height="411" as="geometry" />
        </mxCell>
        <mxCell id="zWoutBjJizttgaIo_MZe-173" value="" style="html=1;shadow=0;dashed=0;shape=mxgraph.bootstrap.rrect;rSize=5;strokeColor=#DFDFDF;html=1;whiteSpace=wrap;fillColor=#FFFFFF;fontColor=#000000;align=right;" vertex="1" parent="zWoutBjJizttgaIo_MZe-191">
          <mxGeometry y="161" width="200" height="150" as="geometry" />
        </mxCell>
        <mxCell id="zWoutBjJizttgaIo_MZe-174" value="Mina sidor" style="html=1;shadow=0;dashed=0;shape=mxgraph.bootstrap.topButton;rSize=5;strokeColor=none;fillColor=#0085FC;fontColor=#ffffff;perimeter=none;whiteSpace=wrap;resizeWidth=1;align=left;spacing=10;fontStyle=1" vertex="1" parent="zWoutBjJizttgaIo_MZe-173">
          <mxGeometry width="200" height="30" relative="1" as="geometry" />
        </mxCell>
        <mxCell id="zWoutBjJizttgaIo_MZe-175" value="Mina beställningar" style="strokeColor=inherit;fillColor=inherit;gradientColor=inherit;fontColor=inherit;html=1;shadow=0;dashed=0;perimeter=none;whiteSpace=wrap;resizeWidth=1;align=left;spacing=10;" vertex="1" parent="zWoutBjJizttgaIo_MZe-173">
          <mxGeometry width="200" height="30" relative="1" as="geometry">
            <mxPoint y="30" as="offset" />
          </mxGeometry>
        </mxCell>
        <mxCell id="zWoutBjJizttgaIo_MZe-176" value="Mina uppgifter" style="strokeColor=inherit;fillColor=inherit;gradientColor=inherit;fontColor=inherit;html=1;shadow=0;dashed=0;perimeter=none;whiteSpace=wrap;resizeWidth=1;align=left;spacing=10;" vertex="1" parent="zWoutBjJizttgaIo_MZe-173">
          <mxGeometry width="200" height="30" relative="1" as="geometry">
            <mxPoint y="60" as="offset" />
          </mxGeometry>
        </mxCell>
        <mxCell id="zWoutBjJizttgaIo_MZe-177" value="Porta ac consectetur ac" style="strokeColor=inherit;fillColor=inherit;gradientColor=inherit;fontColor=inherit;html=1;shadow=0;dashed=0;perimeter=none;whiteSpace=wrap;resizeWidth=1;align=left;spacing=10;" vertex="1" parent="zWoutBjJizttgaIo_MZe-173">
          <mxGeometry width="200" height="30" relative="1" as="geometry">
            <mxPoint y="90" as="offset" />
          </mxGeometry>
        </mxCell>
        <mxCell id="zWoutBjJizttgaIo_MZe-178" value="Vestibulum at eros" style="strokeColor=inherit;fillColor=inherit;gradientColor=inherit;fontColor=inherit;html=1;shadow=0;dashed=0;shape=mxgraph.bootstrap.bottomButton;rSize=5;perimeter=none;whiteSpace=wrap;resizeWidth=1;resizeHeight=0;align=left;spacing=10;" vertex="1" parent="zWoutBjJizttgaIo_MZe-173">
          <mxGeometry y="1" width="200" height="30" relative="1" as="geometry">
            <mxPoint y="-30" as="offset" />
          </mxGeometry>
        </mxCell>
        <mxCell id="zWoutBjJizttgaIo_MZe-179" value="" style="html=1;shadow=0;dashed=0;shape=mxgraph.bootstrap.rrect;rSize=5;strokeColor=#DFDFDF;html=1;whiteSpace=wrap;fillColor=#FFFFFF;fontColor=#000000;align=right;" vertex="1" parent="zWoutBjJizttgaIo_MZe-191">
          <mxGeometry width="200" height="150" as="geometry" />
        </mxCell>
        <mxCell id="zWoutBjJizttgaIo_MZe-180" value="Produkter" style="strokeColor=inherit;fillColor=inherit;gradientColor=inherit;fontColor=inherit;html=1;shadow=0;dashed=0;shape=mxgraph.bootstrap.topButton;rSize=5;perimeter=none;whiteSpace=wrap;resizeWidth=1;align=left;spacing=10;fontStyle=1" vertex="1" parent="zWoutBjJizttgaIo_MZe-179">
          <mxGeometry width="200" height="30" relative="1" as="geometry" />
        </mxCell>
        <mxCell id="zWoutBjJizttgaIo_MZe-181" value="Kategori 1" style="strokeColor=inherit;fillColor=inherit;gradientColor=inherit;fontColor=inherit;html=1;shadow=0;dashed=0;perimeter=none;whiteSpace=wrap;resizeWidth=1;align=left;spacing=10;" vertex="1" parent="zWoutBjJizttgaIo_MZe-179">
          <mxGeometry width="200" height="30" relative="1" as="geometry">
            <mxPoint y="30" as="offset" />
          </mxGeometry>
        </mxCell>
        <mxCell id="zWoutBjJizttgaIo_MZe-182" value="Kategori 2" style="strokeColor=inherit;fillColor=inherit;gradientColor=inherit;fontColor=inherit;html=1;shadow=0;dashed=0;perimeter=none;whiteSpace=wrap;resizeWidth=1;align=left;spacing=10;" vertex="1" parent="zWoutBjJizttgaIo_MZe-179">
          <mxGeometry width="200" height="30" relative="1" as="geometry">
            <mxPoint y="60" as="offset" />
          </mxGeometry>
        </mxCell>
        <mxCell id="zWoutBjJizttgaIo_MZe-183" value="Kategori 3" style="strokeColor=inherit;fillColor=inherit;gradientColor=inherit;fontColor=inherit;html=1;shadow=0;dashed=0;perimeter=none;whiteSpace=wrap;resizeWidth=1;align=left;spacing=10;" vertex="1" parent="zWoutBjJizttgaIo_MZe-179">
          <mxGeometry width="200" height="30" relative="1" as="geometry">
            <mxPoint y="90" as="offset" />
          </mxGeometry>
        </mxCell>
        <mxCell id="zWoutBjJizttgaIo_MZe-184" value="Kategori 4" style="strokeColor=inherit;fillColor=inherit;gradientColor=inherit;fontColor=inherit;html=1;shadow=0;dashed=0;shape=mxgraph.bootstrap.bottomButton;rSize=5;perimeter=none;whiteSpace=wrap;resizeWidth=1;resizeHeight=0;align=left;spacing=10;" vertex="1" parent="zWoutBjJizttgaIo_MZe-179">
          <mxGeometry y="1" width="200" height="30" relative="1" as="geometry">
            <mxPoint y="-30" as="offset" />
          </mxGeometry>
        </mxCell>
        <mxCell id="zWoutBjJizttgaIo_MZe-185" value="" style="html=1;shadow=0;dashed=0;shape=mxgraph.bootstrap.rrect;rSize=5;strokeColor=#DFDFDF;html=1;whiteSpace=wrap;fillColor=#FFFFFF;fontColor=#000000;align=right;" vertex="1" parent="zWoutBjJizttgaIo_MZe-191">
          <mxGeometry y="322" width="200" height="89" as="geometry" />
        </mxCell>
        <mxCell id="zWoutBjJizttgaIo_MZe-186" value="Information" style="strokeColor=inherit;fillColor=inherit;gradientColor=inherit;fontColor=inherit;html=1;shadow=0;dashed=0;shape=mxgraph.bootstrap.topButton;rSize=5;perimeter=none;whiteSpace=wrap;resizeWidth=1;align=left;spacing=10;fontStyle=1" vertex="1" parent="zWoutBjJizttgaIo_MZe-185">
          <mxGeometry width="200" height="30" relative="1" as="geometry" />
        </mxCell>
        <mxCell id="zWoutBjJizttgaIo_MZe-187" value="Om HakimLivs" style="strokeColor=inherit;fillColor=inherit;gradientColor=inherit;fontColor=inherit;html=1;shadow=0;dashed=0;perimeter=none;whiteSpace=wrap;resizeWidth=1;align=left;spacing=10;" vertex="1" parent="zWoutBjJizttgaIo_MZe-185">
          <mxGeometry width="200" height="30" relative="1" as="geometry">
            <mxPoint y="30" as="offset" />
          </mxGeometry>
        </mxCell>
        <mxCell id="zWoutBjJizttgaIo_MZe-188" value="Kontakt" style="strokeColor=inherit;fillColor=inherit;gradientColor=inherit;fontColor=inherit;html=1;shadow=0;dashed=0;shape=mxgraph.bootstrap.bottomButton;rSize=5;perimeter=none;whiteSpace=wrap;resizeWidth=1;resizeHeight=0;align=left;spacing=10;" vertex="1" parent="zWoutBjJizttgaIo_MZe-185">
          <mxGeometry y="1" width="200" height="30" relative="1" as="geometry">
            <mxPoint y="-30" as="offset" />
          </mxGeometry>
        </mxCell>
        <mxCell id="zWoutBjJizttgaIo_MZe-192" value="" style="group" vertex="1" connectable="0" parent="1">
          <mxGeometry x="1527" y="1024" width="796" height="614" as="geometry" />
        </mxCell>
        <mxCell id="zWoutBjJizttgaIo_MZe-141" value="" style="html=1;shadow=0;dashed=0;shape=mxgraph.bootstrap.rrect;rSize=5;strokeColor=#DEE2E6;html=1;whiteSpace=wrap;fillColor=#ffffff;fontColor=#0085FC;align=center;" vertex="1" parent="zWoutBjJizttgaIo_MZe-192">
          <mxGeometry x="331.5" y="584" width="150" height="30" as="geometry" />
        </mxCell>
        <mxCell id="zWoutBjJizttgaIo_MZe-142" value="&lt;&lt;" style="strokeColor=inherit;fillColor=inherit;gradientColor=inherit;fontColor=inherit;html=1;shadow=0;dashed=0;shape=mxgraph.bootstrap.leftButton;rSize=5;perimeter=none;whiteSpace=wrap;resizeHeight=1;fontSize=14;" vertex="1" parent="zWoutBjJizttgaIo_MZe-141">
          <mxGeometry width="30" height="30" relative="1" as="geometry" />
        </mxCell>
        <mxCell id="zWoutBjJizttgaIo_MZe-143" value="1" style="strokeColor=inherit;fillColor=inherit;gradientColor=inherit;fontColor=inherit;html=1;shadow=0;dashed=0;perimeter=none;whiteSpace=wrap;resizeHeight=1;fontSize=14;" vertex="1" parent="zWoutBjJizttgaIo_MZe-141">
          <mxGeometry width="30" height="30" relative="1" as="geometry">
            <mxPoint x="30" as="offset" />
          </mxGeometry>
        </mxCell>
        <mxCell id="zWoutBjJizttgaIo_MZe-144" value="2" style="strokeColor=inherit;fillColor=inherit;gradientColor=inherit;fontColor=inherit;html=1;shadow=0;dashed=0;perimeter=none;whiteSpace=wrap;resizeHeight=1;fontSize=14;" vertex="1" parent="zWoutBjJizttgaIo_MZe-141">
          <mxGeometry width="30" height="30" relative="1" as="geometry">
            <mxPoint x="60" as="offset" />
          </mxGeometry>
        </mxCell>
        <mxCell id="zWoutBjJizttgaIo_MZe-145" value="3" style="strokeColor=inherit;fillColor=inherit;gradientColor=inherit;fontColor=inherit;html=1;shadow=0;dashed=0;perimeter=none;whiteSpace=wrap;resizeHeight=1;fontSize=14;" vertex="1" parent="zWoutBjJizttgaIo_MZe-141">
          <mxGeometry width="30" height="30" relative="1" as="geometry">
            <mxPoint x="90" as="offset" />
          </mxGeometry>
        </mxCell>
        <mxCell id="zWoutBjJizttgaIo_MZe-146" value="&gt;&gt;" style="strokeColor=inherit;fillColor=inherit;gradientColor=inherit;fontColor=inherit;html=1;shadow=0;dashed=0;shape=mxgraph.bootstrap.rightButton;rSize=5;perimeter=none;whiteSpace=wrap;resizeHeight=1;fontSize=14;" vertex="1" parent="zWoutBjJizttgaIo_MZe-141">
          <mxGeometry x="1" width="30" height="30" relative="1" as="geometry">
            <mxPoint x="-30" as="offset" />
          </mxGeometry>
        </mxCell>
        <mxCell id="zWoutBjJizttgaIo_MZe-151" value="" style="html=1;shadow=0;dashed=0;shape=mxgraph.bootstrap.rrect;rSize=5;strokeColor=#DFDFDF;html=1;whiteSpace=wrap;fillColor=#FFFFFF;fontColor=#000000;align=center;" vertex="1" parent="zWoutBjJizttgaIo_MZe-192">
          <mxGeometry x="9.5" y="64" width="370" height="230" as="geometry" />
        </mxCell>
        <mxCell id="zWoutBjJizttgaIo_MZe-152" value="Hanterad beställning (id: #33)" style="html=1;shadow=0;dashed=0;shape=mxgraph.bootstrap.topButton;strokeColor=inherit;fillColor=#F7F7F7;rSize=5;perimeter=none;whiteSpace=wrap;resizeWidth=1;align=left;spacing=20;fontSize=14;fontStyle=1" vertex="1" parent="zWoutBjJizttgaIo_MZe-151">
          <mxGeometry width="370" height="40" relative="1" as="geometry" />
        </mxCell>
        <mxCell id="zWoutBjJizttgaIo_MZe-153" value="&lt;span style=&quot;font-size: 20px&quot;&gt;&lt;b&gt;Beställning den 12 mars 2021&lt;br&gt;&lt;/b&gt;&lt;/span&gt;&lt;br style=&quot;font-size: 14px&quot;&gt;Summa: 139,00 kr inkl. moms&lt;br&gt;&lt;br&gt;Hämtades i butik 2021-03-13" style="perimeter=none;html=1;whiteSpace=wrap;fillColor=none;strokeColor=none;resizeWidth=1;verticalAlign=top;align=left;spacing=20;spacingTop=-10;fontSize=14;" vertex="1" parent="zWoutBjJizttgaIo_MZe-151">
          <mxGeometry width="370" height="120" relative="1" as="geometry">
            <mxPoint y="40" as="offset" />
          </mxGeometry>
        </mxCell>
        <mxCell id="zWoutBjJizttgaIo_MZe-154" value="Visa beställning" style="html=1;shadow=0;dashed=0;shape=mxgraph.bootstrap.rrect;rSize=5;perimeter=none;whiteSpace=wrap;fillColor=#0085FC;strokeColor=none;fontColor=#ffffff;resizeWidth=1;fontSize=14;" vertex="1" parent="zWoutBjJizttgaIo_MZe-151">
          <mxGeometry y="1" width="150" height="40" relative="1" as="geometry">
            <mxPoint x="110" y="-60" as="offset" />
          </mxGeometry>
        </mxCell>
        <mxCell id="zWoutBjJizttgaIo_MZe-155" value="" style="html=1;shadow=0;dashed=0;shape=mxgraph.bootstrap.rrect;rSize=5;strokeColor=#DFDFDF;html=1;whiteSpace=wrap;fillColor=#FFFFFF;fontColor=#000000;align=center;" vertex="1" parent="zWoutBjJizttgaIo_MZe-192">
          <mxGeometry x="419.5" y="64" width="370" height="230" as="geometry" />
        </mxCell>
        <mxCell id="zWoutBjJizttgaIo_MZe-156" value="Hanterad beställning (id: #14)" style="html=1;shadow=0;dashed=0;shape=mxgraph.bootstrap.topButton;strokeColor=inherit;fillColor=#F7F7F7;rSize=5;perimeter=none;whiteSpace=wrap;resizeWidth=1;align=left;spacing=20;fontSize=14;fontStyle=1" vertex="1" parent="zWoutBjJizttgaIo_MZe-155">
          <mxGeometry width="370" height="40" relative="1" as="geometry" />
        </mxCell>
        <mxCell id="zWoutBjJizttgaIo_MZe-157" value="&lt;span style=&quot;font-size: 20px&quot;&gt;&lt;b&gt;Beställning den 11 mars 2021&lt;br&gt;&lt;/b&gt;&lt;/span&gt;&lt;br style=&quot;font-size: 14px&quot;&gt;Summa: 117,95 kr inkl. moms&lt;br&gt;&lt;br&gt;Hämtades i butik 2021-03-12" style="perimeter=none;html=1;whiteSpace=wrap;fillColor=none;strokeColor=none;resizeWidth=1;verticalAlign=top;align=left;spacing=20;spacingTop=-10;fontSize=14;" vertex="1" parent="zWoutBjJizttgaIo_MZe-155">
          <mxGeometry width="370" height="120" relative="1" as="geometry">
            <mxPoint y="40" as="offset" />
          </mxGeometry>
        </mxCell>
        <mxCell id="zWoutBjJizttgaIo_MZe-158" value="Visa beställning" style="html=1;shadow=0;dashed=0;shape=mxgraph.bootstrap.rrect;rSize=5;perimeter=none;whiteSpace=wrap;fillColor=#0085FC;strokeColor=none;fontColor=#ffffff;resizeWidth=1;fontSize=14;" vertex="1" parent="zWoutBjJizttgaIo_MZe-155">
          <mxGeometry y="1" width="150" height="40" relative="1" as="geometry">
            <mxPoint x="110" y="-60" as="offset" />
          </mxGeometry>
        </mxCell>
        <mxCell id="zWoutBjJizttgaIo_MZe-159" value="" style="html=1;shadow=0;dashed=0;shape=mxgraph.bootstrap.rrect;rSize=5;strokeColor=#DFDFDF;html=1;whiteSpace=wrap;fillColor=#FFFFFF;fontColor=#000000;align=center;" vertex="1" parent="zWoutBjJizttgaIo_MZe-192">
          <mxGeometry x="9.5" y="324" width="370" height="230" as="geometry" />
        </mxCell>
        <mxCell id="zWoutBjJizttgaIo_MZe-160" value="Hanterad beställning (id: #3)" style="html=1;shadow=0;dashed=0;shape=mxgraph.bootstrap.topButton;strokeColor=inherit;fillColor=#F7F7F7;rSize=5;perimeter=none;whiteSpace=wrap;resizeWidth=1;align=left;spacing=20;fontSize=14;fontStyle=1" vertex="1" parent="zWoutBjJizttgaIo_MZe-159">
          <mxGeometry width="370" height="40" relative="1" as="geometry" />
        </mxCell>
        <mxCell id="zWoutBjJizttgaIo_MZe-161" value="&lt;span style=&quot;font-size: 20px&quot;&gt;&lt;b&gt;Beställning den 12 mars 2021&lt;br&gt;&lt;/b&gt;&lt;/span&gt;&lt;br style=&quot;font-size: 14px&quot;&gt;Summa: 139,00 kr inkl. moms&lt;br&gt;&lt;br&gt;Hämtades i butik 2021-03-13" style="perimeter=none;html=1;whiteSpace=wrap;fillColor=none;strokeColor=none;resizeWidth=1;verticalAlign=top;align=left;spacing=20;spacingTop=-10;fontSize=14;" vertex="1" parent="zWoutBjJizttgaIo_MZe-159">
          <mxGeometry width="370" height="120" relative="1" as="geometry">
            <mxPoint y="40" as="offset" />
          </mxGeometry>
        </mxCell>
        <mxCell id="zWoutBjJizttgaIo_MZe-162" value="Visa beställning" style="html=1;shadow=0;dashed=0;shape=mxgraph.bootstrap.rrect;rSize=5;perimeter=none;whiteSpace=wrap;fillColor=#0085FC;strokeColor=none;fontColor=#ffffff;resizeWidth=1;fontSize=14;" vertex="1" parent="zWoutBjJizttgaIo_MZe-159">
          <mxGeometry y="1" width="150" height="40" relative="1" as="geometry">
            <mxPoint x="110" y="-60" as="offset" />
          </mxGeometry>
        </mxCell>
        <mxCell id="zWoutBjJizttgaIo_MZe-163" value="" style="html=1;shadow=0;dashed=0;shape=mxgraph.bootstrap.rrect;rSize=5;strokeColor=#DFDFDF;html=1;whiteSpace=wrap;fillColor=#FFFFFF;fontColor=#000000;align=center;" vertex="1" parent="zWoutBjJizttgaIo_MZe-192">
          <mxGeometry x="419.5" y="324" width="370" height="230" as="geometry" />
        </mxCell>
        <mxCell id="zWoutBjJizttgaIo_MZe-164" value="Hanterad beställning (id: #2)" style="html=1;shadow=0;dashed=0;shape=mxgraph.bootstrap.topButton;strokeColor=inherit;fillColor=#F7F7F7;rSize=5;perimeter=none;whiteSpace=wrap;resizeWidth=1;align=left;spacing=20;fontSize=14;fontStyle=1" vertex="1" parent="zWoutBjJizttgaIo_MZe-163">
          <mxGeometry width="370" height="40" relative="1" as="geometry" />
        </mxCell>
        <mxCell id="zWoutBjJizttgaIo_MZe-165" value="&lt;span style=&quot;font-size: 20px&quot;&gt;&lt;b&gt;Beställning den 11 mars 2021&lt;br&gt;&lt;/b&gt;&lt;/span&gt;&lt;br style=&quot;font-size: 14px&quot;&gt;Summa: 117,95 kr inkl. moms&lt;br&gt;&lt;br&gt;Hämtades i butik 2021-03-12" style="perimeter=none;html=1;whiteSpace=wrap;fillColor=none;strokeColor=none;resizeWidth=1;verticalAlign=top;align=left;spacing=20;spacingTop=-10;fontSize=14;" vertex="1" parent="zWoutBjJizttgaIo_MZe-163">
          <mxGeometry width="370" height="120" relative="1" as="geometry">
            <mxPoint y="40" as="offset" />
          </mxGeometry>
        </mxCell>
        <mxCell id="zWoutBjJizttgaIo_MZe-166" value="Visa beställning" style="html=1;shadow=0;dashed=0;shape=mxgraph.bootstrap.rrect;rSize=5;perimeter=none;whiteSpace=wrap;fillColor=#0085FC;strokeColor=none;fontColor=#ffffff;resizeWidth=1;fontSize=14;" vertex="1" parent="zWoutBjJizttgaIo_MZe-163">
          <mxGeometry y="1" width="150" height="40" relative="1" as="geometry">
            <mxPoint x="110" y="-60" as="offset" />
          </mxGeometry>
        </mxCell>
        <mxCell id="zWoutBjJizttgaIo_MZe-167" value="Tidigare beställningar" style="text;html=1;strokeColor=none;fillColor=none;align=center;verticalAlign=middle;whiteSpace=wrap;rounded=0;fontSize=28;" vertex="1" parent="zWoutBjJizttgaIo_MZe-192">
          <mxGeometry width="796" height="50" as="geometry" />
        </mxCell>
        <mxCell id="zWoutBjJizttgaIo_MZe-148" value="Ny beställning (id: #34)" style="html=1;shadow=0;dashed=0;shape=mxgraph.bootstrap.topButton;strokeColor=inherit;fillColor=#F7F7F7;rSize=5;perimeter=none;whiteSpace=wrap;resizeWidth=1;align=left;spacing=20;fontSize=14;fontStyle=1" vertex="1" parent="1">
          <mxGeometry x="1515" y="151" width="545" height="40" as="geometry" />
        </mxCell>
        <mxCell id="zWoutBjJizttgaIo_MZe-149" value="&lt;span style=&quot;font-size: 20px&quot;&gt;&lt;b&gt;Beställning den 29 mars 2021&lt;br&gt;&lt;/b&gt;&lt;/span&gt;&lt;br style=&quot;font-size: 14px&quot;&gt;Summa: 439,75 kr inkl. moms&lt;br&gt;&lt;br&gt;Redo att hämtas i butik 2021-03-30 kl. 10:00" style="perimeter=none;html=1;whiteSpace=wrap;fillColor=none;strokeColor=none;resizeWidth=1;verticalAlign=top;align=left;spacing=20;spacingTop=-10;fontSize=14;" vertex="1" parent="1">
          <mxGeometry x="1515" y="191" width="789" height="120" as="geometry">
            <mxPoint y="40" as="offset" />
          </mxGeometry>
        </mxCell>
        <mxCell id="zWoutBjJizttgaIo_MZe-197" value="Artikel" style="text;html=1;strokeColor=none;fillColor=none;align=center;verticalAlign=middle;whiteSpace=wrap;rounded=0;fontSize=16;fontStyle=1" vertex="1" parent="1">
          <mxGeometry x="1540" y="337" width="246" height="20" as="geometry" />
        </mxCell>
        <mxCell id="zWoutBjJizttgaIo_MZe-198" value="Antal" style="text;html=1;strokeColor=none;fillColor=none;align=left;verticalAlign=middle;whiteSpace=wrap;rounded=0;fontSize=16;fontStyle=1" vertex="1" parent="1">
          <mxGeometry x="1812" y="339" width="46" height="20" as="geometry" />
        </mxCell>
        <mxCell id="zWoutBjJizttgaIo_MZe-199" value="Styckpris" style="text;html=1;strokeColor=none;fillColor=none;align=left;verticalAlign=middle;whiteSpace=wrap;rounded=0;fontSize=16;fontStyle=1" vertex="1" parent="1">
          <mxGeometry x="1894" y="339" width="55" height="20" as="geometry" />
        </mxCell>
        <mxCell id="zWoutBjJizttgaIo_MZe-200" value="Summa" style="text;html=1;strokeColor=none;fillColor=none;align=left;verticalAlign=middle;whiteSpace=wrap;rounded=0;fontSize=16;fontStyle=1" vertex="1" parent="1">
          <mxGeometry x="1989" y="339" width="55" height="20" as="geometry" />
        </mxCell>
        <mxCell id="zWoutBjJizttgaIo_MZe-210" value="" style="group;align=right;" vertex="1" connectable="0" parent="1">
          <mxGeometry x="1540" y="368" width="492" height="50" as="geometry" />
        </mxCell>
        <mxCell id="zWoutBjJizttgaIo_MZe-193" value="" style="verticalLabelPosition=bottom;shadow=0;dashed=0;align=center;html=1;verticalAlign=top;strokeWidth=1;shape=mxgraph.mockup.graphics.simpleIcon;strokeColor=#999999;fontSize=28;" vertex="1" parent="zWoutBjJizttgaIo_MZe-210">
          <mxGeometry width="50" height="50" as="geometry" />
        </mxCell>
        <mxCell id="zWoutBjJizttgaIo_MZe-196" value="&lt;span style=&quot;font-family: arial; font-style: normal; font-size: 16px;&quot;&gt;&lt;font style=&quot;font-size: 16px; line-height: 100%;&quot;&gt;Eko Simply Cola 24-pack&lt;/font&gt;&lt;/span&gt;" style="text;whiteSpace=wrap;html=1;fontSize=16;verticalAlign=bottom;spacing=0;" vertex="1" parent="zWoutBjJizttgaIo_MZe-210">
          <mxGeometry x="68" y="12.5" width="178" height="29" as="geometry" />
        </mxCell>
        <mxCell id="zWoutBjJizttgaIo_MZe-201" value="&lt;span style=&quot;font-family: arial; font-style: normal; font-size: 16px;&quot;&gt;&lt;font style=&quot;font-size: 16px; line-height: 100%;&quot;&gt;2&lt;/font&gt;&lt;/span&gt;" style="text;whiteSpace=wrap;html=1;fontSize=16;verticalAlign=bottom;align=center;spacing=0;" vertex="1" parent="zWoutBjJizttgaIo_MZe-210">
          <mxGeometry x="275" y="12.5" width="40" height="29" as="geometry" />
        </mxCell>
        <mxCell id="zWoutBjJizttgaIo_MZe-202" value="&lt;span style=&quot;font-family: arial; font-style: normal; font-size: 16px;&quot;&gt;&lt;font style=&quot;font-size: 16px; line-height: 100%;&quot;&gt;18,90&lt;/font&gt;&lt;/span&gt;" style="text;whiteSpace=wrap;html=1;fontSize=16;verticalAlign=bottom;align=center;spacing=0;" vertex="1" parent="zWoutBjJizttgaIo_MZe-210">
          <mxGeometry x="357" y="12.5" width="43" height="29" as="geometry" />
        </mxCell>
        <mxCell id="zWoutBjJizttgaIo_MZe-209" value="" style="group" vertex="1" connectable="0" parent="1">
          <mxGeometry x="1540" y="428" width="492" height="50" as="geometry" />
        </mxCell>
        <mxCell id="zWoutBjJizttgaIo_MZe-204" value="" style="verticalLabelPosition=bottom;shadow=0;dashed=0;align=center;html=1;verticalAlign=top;strokeWidth=1;shape=mxgraph.mockup.graphics.simpleIcon;strokeColor=#999999;fontSize=28;" vertex="1" parent="zWoutBjJizttgaIo_MZe-209">
          <mxGeometry width="50" height="50" as="geometry" />
        </mxCell>
        <mxCell id="zWoutBjJizttgaIo_MZe-205" value="&lt;span style=&quot;font-family: &amp;#34;arial&amp;#34; ; font-style: normal ; font-size: 16px&quot;&gt;&lt;font style=&quot;font-size: 16px ; line-height: 100%&quot;&gt;Eko Simply Cola&lt;/font&gt;&lt;/span&gt;" style="text;whiteSpace=wrap;html=1;fontSize=16;verticalAlign=bottom;spacing=0;" vertex="1" parent="zWoutBjJizttgaIo_MZe-209">
          <mxGeometry x="68" y="12.5" width="178" height="29" as="geometry" />
        </mxCell>
        <mxCell id="zWoutBjJizttgaIo_MZe-206" value="&lt;span style=&quot;font-family: &amp;#34;arial&amp;#34; ; font-style: normal ; font-size: 16px&quot;&gt;&lt;font style=&quot;font-size: 16px ; line-height: 100%&quot;&gt;1&lt;/font&gt;&lt;/span&gt;" style="text;whiteSpace=wrap;html=1;fontSize=16;verticalAlign=bottom;align=center;spacing=0;" vertex="1" parent="zWoutBjJizttgaIo_MZe-209">
          <mxGeometry x="275" y="12.5" width="40" height="29" as="geometry" />
        </mxCell>
        <mxCell id="zWoutBjJizttgaIo_MZe-207" value="&lt;span style=&quot;font-family: &amp;quot;arial&amp;quot; ; font-style: normal ; font-size: 16px&quot;&gt;&lt;font style=&quot;font-size: 16px ; line-height: 100%&quot;&gt;5,00&lt;/font&gt;&lt;/span&gt;" style="text;whiteSpace=wrap;html=1;fontSize=16;verticalAlign=bottom;align=right;spacing=0;" vertex="1" parent="zWoutBjJizttgaIo_MZe-209">
          <mxGeometry x="357" y="12.5" width="43" height="29" as="geometry" />
        </mxCell>
        <mxCell id="zWoutBjJizttgaIo_MZe-211" value="" style="group" vertex="1" connectable="0" parent="1">
          <mxGeometry x="1540" y="489" width="492" height="50" as="geometry" />
        </mxCell>
        <mxCell id="zWoutBjJizttgaIo_MZe-212" value="" style="verticalLabelPosition=bottom;shadow=0;dashed=0;align=center;html=1;verticalAlign=top;strokeWidth=1;shape=mxgraph.mockup.graphics.simpleIcon;strokeColor=#999999;fontSize=28;" vertex="1" parent="zWoutBjJizttgaIo_MZe-211">
          <mxGeometry width="50" height="50" as="geometry" />
        </mxCell>
        <mxCell id="zWoutBjJizttgaIo_MZe-213" value="&lt;font face=&quot;arial&quot;&gt;En vara med ett långt namn&lt;/font&gt;" style="text;whiteSpace=wrap;html=1;fontSize=16;verticalAlign=bottom;spacing=0;" vertex="1" parent="zWoutBjJizttgaIo_MZe-211">
          <mxGeometry x="68" y="12.5" width="178" height="29" as="geometry" />
        </mxCell>
        <mxCell id="zWoutBjJizttgaIo_MZe-214" value="&lt;span style=&quot;font-family: arial; font-style: normal; font-size: 16px;&quot;&gt;&lt;font style=&quot;font-size: 16px; line-height: 100%;&quot;&gt;2&lt;/font&gt;&lt;/span&gt;" style="text;whiteSpace=wrap;html=1;fontSize=16;verticalAlign=middle;align=center;spacing=0;" vertex="1" parent="zWoutBjJizttgaIo_MZe-211">
          <mxGeometry x="275" y="8" width="40" height="33.5" as="geometry" />
        </mxCell>
        <mxCell id="zWoutBjJizttgaIo_MZe-215" value="&lt;span style=&quot;font-family: &amp;#34;arial&amp;#34; ; font-style: normal ; font-size: 16px&quot;&gt;&lt;font style=&quot;font-size: 16px ; line-height: 100%&quot;&gt;54,50&lt;/font&gt;&lt;/span&gt;" style="text;whiteSpace=wrap;html=1;fontSize=16;verticalAlign=middle;align=center;spacing=0;" vertex="1" parent="zWoutBjJizttgaIo_MZe-211">
          <mxGeometry x="357" y="5" width="43" height="36.5" as="geometry" />
        </mxCell>
        <mxCell id="zWoutBjJizttgaIo_MZe-203" value="&lt;span style=&quot;font-family: arial; font-style: normal; font-size: 16px;&quot;&gt;&lt;font style=&quot;font-size: 16px; line-height: 100%;&quot;&gt;27,80&lt;/font&gt;&lt;/span&gt;" style="text;whiteSpace=wrap;html=1;fontSize=16;verticalAlign=bottom;align=right;spacing=0;" vertex="1" parent="1">
          <mxGeometry x="2001" y="378.5" width="43" height="29" as="geometry" />
        </mxCell>
        <mxCell id="zWoutBjJizttgaIo_MZe-208" value="&lt;span style=&quot;font-family: &amp;quot;arial&amp;quot; ; font-style: normal ; font-size: 16px&quot;&gt;&lt;font style=&quot;font-size: 16px ; line-height: 100%&quot;&gt;5,00&lt;/font&gt;&lt;/span&gt;" style="text;whiteSpace=wrap;html=1;fontSize=16;verticalAlign=bottom;align=right;spacing=0;" vertex="1" parent="1">
          <mxGeometry x="2001" y="438.5" width="43" height="29" as="geometry" />
        </mxCell>
        <mxCell id="zWoutBjJizttgaIo_MZe-216" value="&lt;span style=&quot;font-family: &amp;quot;arial&amp;quot; ; font-style: normal ; font-size: 16px&quot;&gt;&lt;font style=&quot;font-size: 16px ; line-height: 100%&quot;&gt;109,00&lt;/font&gt;&lt;/span&gt;" style="text;whiteSpace=wrap;html=1;fontSize=16;verticalAlign=middle;align=right;spacing=0;" vertex="1" parent="1">
          <mxGeometry x="2001" y="494" width="43" height="37" as="geometry" />
        </mxCell>
        <mxCell id="zWoutBjJizttgaIo_MZe-220" value="" style="line;strokeWidth=2;html=1;fontSize=16;align=center;" vertex="1" parent="1">
          <mxGeometry x="1540" y="552" width="502" height="10" as="geometry" />
        </mxCell>
        <mxCell id="zWoutBjJizttgaIo_MZe-221" value="&lt;span style=&quot;font-family: &amp;quot;arial&amp;quot; ; font-style: normal ; font-size: 16px&quot;&gt;&lt;font style=&quot;font-size: 16px ; line-height: 100%&quot;&gt;109,00&lt;/font&gt;&lt;/span&gt;" style="text;whiteSpace=wrap;html=1;fontSize=16;verticalAlign=middle;align=right;spacing=0;" vertex="1" parent="1">
          <mxGeometry x="1941" y="571" width="103" height="37" as="geometry" />
        </mxCell>
        <mxCell id="zWoutBjJizttgaIo_MZe-222" value="&lt;span style=&quot;font-family: &amp;quot;arial&amp;quot; ; font-style: normal ; font-size: 16px&quot;&gt;&lt;font style=&quot;font-size: 16px ; line-height: 100%&quot;&gt;109,00&lt;/font&gt;&lt;/span&gt;" style="text;whiteSpace=wrap;html=1;fontSize=16;verticalAlign=middle;align=right;spacing=0;" vertex="1" parent="1">
          <mxGeometry x="1941" y="602" width="103" height="37" as="geometry" />
        </mxCell>
        <mxCell id="zWoutBjJizttgaIo_MZe-223" value="&lt;span style=&quot;font-family: &amp;quot;arial&amp;quot; ; font-style: normal ; font-size: 16px&quot;&gt;&lt;font style=&quot;font-size: 16px ; line-height: 100%&quot;&gt;109,00&lt;/font&gt;&lt;/span&gt;" style="text;whiteSpace=wrap;html=1;fontSize=16;verticalAlign=middle;align=right;spacing=0;" vertex="1" parent="1">
          <mxGeometry x="1941" y="633" width="103" height="37" as="geometry" />
        </mxCell>
        <mxCell id="zWoutBjJizttgaIo_MZe-224" value="&lt;span style=&quot;font-family: &amp;quot;arial&amp;quot; ; font-style: normal ; font-size: 16px&quot;&gt;&lt;font style=&quot;font-size: 16px ; line-height: 100%&quot;&gt;109,00&lt;/font&gt;&lt;/span&gt;" style="text;whiteSpace=wrap;html=1;fontSize=16;verticalAlign=middle;align=right;spacing=0;" vertex="1" parent="1">
          <mxGeometry x="1941" y="667" width="103" height="37" as="geometry" />
        </mxCell>
        <mxCell id="zWoutBjJizttgaIo_MZe-225" value="Totalsumma:" style="text;html=1;strokeColor=none;fillColor=none;align=right;verticalAlign=middle;whiteSpace=wrap;rounded=0;fontSize=16;fontStyle=1" vertex="1" parent="1">
          <mxGeometry x="1846" y="582" width="103" height="20" as="geometry" />
        </mxCell>
        <mxCell id="zWoutBjJizttgaIo_MZe-226" value="Varav moms:" style="text;html=1;strokeColor=none;fillColor=none;align=left;verticalAlign=middle;whiteSpace=wrap;rounded=0;fontSize=16;fontStyle=1" vertex="1" parent="1">
          <mxGeometry x="1845" y="613" width="104" height="20" as="geometry" />
        </mxCell>
        <mxCell id="zWoutBjJizttgaIo_MZe-227" value="Leverans:" style="text;html=1;strokeColor=none;fillColor=none;align=right;verticalAlign=middle;whiteSpace=wrap;rounded=0;fontSize=16;fontStyle=1" vertex="1" parent="1">
          <mxGeometry x="1845" y="639" width="104" height="20" as="geometry" />
        </mxCell>
        <mxCell id="zWoutBjJizttgaIo_MZe-228" value="Att betala:" style="text;html=1;strokeColor=none;fillColor=none;align=right;verticalAlign=middle;whiteSpace=wrap;rounded=0;fontSize=16;fontStyle=1" vertex="1" parent="1">
          <mxGeometry x="1845" y="675.5" width="104" height="20" as="geometry" />
        </mxCell>
        <mxCell id="zWoutBjJizttgaIo_MZe-230" value="Dölj beställning" style="html=1;shadow=0;dashed=0;shape=mxgraph.bootstrap.rrect;rSize=5;perimeter=none;whiteSpace=wrap;fillColor=#0085FC;strokeColor=none;fontColor=#ffffff;resizeWidth=1;fontSize=14;" vertex="1" parent="1">
          <mxGeometry x="1716" y="722" width="150" height="40" as="geometry" />
        </mxCell>
      </root>
    </mxGraphModel>
  </diagram>
</mxfile>
